<mxfile host="app.diagrams.net" modified="2021-03-03T05:27:24.726Z" agent="5.0 (Macintosh; Intel Mac OS X 11_1_0) AppleWebKit/537.36 (KHTML, like Gecko) Chrome/88.0.4324.182 Safari/537.36" etag="ZV1sLSOSEMcePVWPL8PU" version="14.4.2" type="github">
  <diagram name="Page-1" id="74e2e168-ea6b-b213-b513-2b3c1d86103e">
    <mxGraphModel dx="1184" dy="821" grid="1" gridSize="10" guides="1" tooltips="1" connect="1" arrows="1" fold="1" page="1" pageScale="1" pageWidth="1100" pageHeight="850" background="#ffffff" math="0" shadow="0">
      <root>
        <mxCell id="0" />
        <mxCell id="1" parent="0" />
        <mxCell id="77e6c97f196da883-1" value="教师端" style="swimlane;html=1;childLayout=stackLayout;startSize=20;rounded=0;shadow=0;labelBackgroundColor=none;strokeWidth=1;fontFamily=Verdana;fontSize=8;align=center;" parent="1" vertex="1">
          <mxGeometry x="70" y="60" width="800" height="610" as="geometry" />
        </mxCell>
        <mxCell id="77e6c97f196da883-2" value="windows" style="swimlane;html=1;startSize=20;" parent="77e6c97f196da883-1" vertex="1">
          <mxGeometry y="20" width="160" height="590" as="geometry" />
        </mxCell>
        <mxCell id="77e6c97f196da883-8" value="主讲/学习师下课" style="rounded=1;whiteSpace=wrap;html=1;shadow=0;labelBackgroundColor=none;strokeWidth=1;fontFamily=Verdana;fontSize=8;align=center;" parent="77e6c97f196da883-2" vertex="1">
          <mxGeometry x="20" y="65" width="100" height="60" as="geometry" />
        </mxCell>
        <mxCell id="77e6c97f196da883-26" style="edgeStyle=orthogonalEdgeStyle;rounded=1;html=1;labelBackgroundColor=none;startArrow=none;startFill=0;startSize=5;endArrow=classicThin;endFill=1;endSize=5;jettySize=auto;orthogonalLoop=1;strokeWidth=1;fontFamily=Verdana;fontSize=8" parent="77e6c97f196da883-1" source="77e6c97f196da883-8" target="77e6c97f196da883-11" edge="1">
          <mxGeometry relative="1" as="geometry" />
        </mxCell>
        <mxCell id="77e6c97f196da883-3" value="lol-teaching" style="swimlane;html=1;startSize=20;" parent="77e6c97f196da883-1" vertex="1">
          <mxGeometry x="160" y="20" width="160" height="590" as="geometry" />
        </mxCell>
        <mxCell id="2ZarbE_VErfhy2eBcegc-2" style="edgeStyle=orthogonalEdgeStyle;rounded=0;orthogonalLoop=1;jettySize=auto;html=1;entryX=0.5;entryY=0;entryDx=0;entryDy=0;" edge="1" parent="77e6c97f196da883-3" source="77e6c97f196da883-11" target="77e6c97f196da883-13">
          <mxGeometry relative="1" as="geometry" />
        </mxCell>
        <mxCell id="77e6c97f196da883-11" value="发送课程评价信令" style="rounded=1;whiteSpace=wrap;html=1;shadow=0;labelBackgroundColor=none;strokeWidth=1;fontFamily=Verdana;fontSize=8;align=center;" parent="77e6c97f196da883-3" vertex="1">
          <mxGeometry x="30" y="65" width="100" height="60" as="geometry" />
        </mxCell>
        <mxCell id="2ZarbE_VErfhy2eBcegc-6" value="是" style="edgeStyle=orthogonalEdgeStyle;rounded=0;orthogonalLoop=1;jettySize=auto;html=1;entryX=0.5;entryY=0;entryDx=0;entryDy=0;" edge="1" parent="77e6c97f196da883-3" source="77e6c97f196da883-13" target="2ZarbE_VErfhy2eBcegc-5">
          <mxGeometry relative="1" as="geometry" />
        </mxCell>
        <mxCell id="77e6c97f196da883-13" value="根据评价规则，判断是否发送信令" style="rhombus;whiteSpace=wrap;html=1;rounded=0;shadow=0;labelBackgroundColor=none;strokeWidth=1;fontFamily=Verdana;fontSize=8;align=center;" parent="77e6c97f196da883-3" vertex="1">
          <mxGeometry x="40" y="170" width="80" height="60" as="geometry" />
        </mxCell>
        <mxCell id="2ZarbE_VErfhy2eBcegc-5" value="推送MQ" style="rounded=1;whiteSpace=wrap;html=1;shadow=0;labelBackgroundColor=none;strokeWidth=1;fontFamily=Verdana;fontSize=8;align=center;" vertex="1" parent="77e6c97f196da883-3">
          <mxGeometry x="30" y="270" width="100" height="60" as="geometry" />
        </mxCell>
        <mxCell id="2ZarbE_VErfhy2eBcegc-14" value="返回发送成功" style="rounded=1;whiteSpace=wrap;html=1;shadow=0;labelBackgroundColor=none;strokeWidth=1;fontFamily=Verdana;fontSize=8;align=center;" vertex="1" parent="77e6c97f196da883-3">
          <mxGeometry x="30" y="480" width="100" height="60" as="geometry" />
        </mxCell>
        <mxCell id="2ZarbE_VErfhy2eBcegc-126" value="保存评价信令记录" style="rounded=1;whiteSpace=wrap;html=1;shadow=0;labelBackgroundColor=none;strokeWidth=1;fontFamily=Verdana;fontSize=8;align=center;" vertex="1" parent="77e6c97f196da883-3">
          <mxGeometry x="30" y="380" width="100" height="60" as="geometry" />
        </mxCell>
        <mxCell id="2ZarbE_VErfhy2eBcegc-16" style="edgeStyle=orthogonalEdgeStyle;rounded=0;orthogonalLoop=1;jettySize=auto;html=1;entryX=0.25;entryY=1;entryDx=0;entryDy=0;" edge="1" parent="77e6c97f196da883-1" source="2ZarbE_VErfhy2eBcegc-14" target="77e6c97f196da883-8">
          <mxGeometry relative="1" as="geometry" />
        </mxCell>
        <mxCell id="2ZarbE_VErfhy2eBcegc-17" value="返回成功信息" style="edgeLabel;html=1;align=center;verticalAlign=middle;resizable=0;points=[];" vertex="1" connectable="0" parent="2ZarbE_VErfhy2eBcegc-16">
          <mxGeometry x="-0.6238" relative="1" as="geometry">
            <mxPoint as="offset" />
          </mxGeometry>
        </mxCell>
        <mxCell id="2ZarbE_VErfhy2eBcegc-120" value="MQ" style="swimlane;html=1;startSize=20;" vertex="1" parent="77e6c97f196da883-1">
          <mxGeometry x="320" y="20" width="160" height="590" as="geometry" />
        </mxCell>
        <mxCell id="2ZarbE_VErfhy2eBcegc-121" value="异步保存信令记录" style="rounded=1;whiteSpace=wrap;html=1;shadow=0;labelBackgroundColor=none;strokeWidth=1;fontFamily=Verdana;fontSize=8;align=center;" vertex="1" parent="2ZarbE_VErfhy2eBcegc-120">
          <mxGeometry x="40" y="320" width="100" height="60" as="geometry" />
        </mxCell>
        <mxCell id="2ZarbE_VErfhy2eBcegc-122" value="返回发送成功" style="rounded=1;whiteSpace=wrap;html=1;shadow=0;labelBackgroundColor=none;strokeWidth=1;fontFamily=Verdana;fontSize=8;align=center;" vertex="1" parent="2ZarbE_VErfhy2eBcegc-120">
          <mxGeometry x="40" y="480" width="100" height="60" as="geometry" />
        </mxCell>
        <mxCell id="77e6c97f196da883-4" value="lol-live" style="swimlane;html=1;startSize=20;" parent="77e6c97f196da883-1" vertex="1">
          <mxGeometry x="480" y="20" width="160" height="590" as="geometry" />
        </mxCell>
        <mxCell id="77e6c97f196da883-12" value="调用发送信息接口，依赖集团直播" style="rounded=1;whiteSpace=wrap;html=1;shadow=0;labelBackgroundColor=none;strokeWidth=1;fontFamily=Verdana;fontSize=8;align=center;" parent="77e6c97f196da883-4" vertex="1">
          <mxGeometry x="40" y="270" width="100" height="60" as="geometry" />
        </mxCell>
        <mxCell id="77e6c97f196da883-18" value="返回发送成功" style="rounded=1;whiteSpace=wrap;html=1;shadow=0;labelBackgroundColor=none;strokeWidth=1;fontFamily=Verdana;fontSize=8;align=center;" parent="77e6c97f196da883-4" vertex="1">
          <mxGeometry x="40" y="480" width="100" height="60" as="geometry" />
        </mxCell>
        <mxCell id="2ZarbE_VErfhy2eBcegc-123" value="集团直播" style="swimlane;html=1;startSize=20;" vertex="1" parent="77e6c97f196da883-1">
          <mxGeometry x="640" y="20" width="160" height="590" as="geometry" />
        </mxCell>
        <mxCell id="2ZarbE_VErfhy2eBcegc-124" value="发送信令" style="rounded=1;whiteSpace=wrap;html=1;shadow=0;labelBackgroundColor=none;strokeWidth=1;fontFamily=Verdana;fontSize=8;align=center;" vertex="1" parent="2ZarbE_VErfhy2eBcegc-123">
          <mxGeometry x="40" y="270" width="100" height="60" as="geometry" />
        </mxCell>
        <mxCell id="2ZarbE_VErfhy2eBcegc-128" style="edgeStyle=orthogonalEdgeStyle;rounded=0;orthogonalLoop=1;jettySize=auto;html=1;" edge="1" parent="77e6c97f196da883-1" source="2ZarbE_VErfhy2eBcegc-5" target="2ZarbE_VErfhy2eBcegc-121">
          <mxGeometry relative="1" as="geometry">
            <Array as="points">
              <mxPoint x="240" y="370" />
            </Array>
          </mxGeometry>
        </mxCell>
        <mxCell id="2ZarbE_VErfhy2eBcegc-129" style="edgeStyle=orthogonalEdgeStyle;rounded=0;orthogonalLoop=1;jettySize=auto;html=1;exitX=1;exitY=0.5;exitDx=0;exitDy=0;entryX=0;entryY=0.5;entryDx=0;entryDy=0;" edge="1" parent="77e6c97f196da883-1" source="2ZarbE_VErfhy2eBcegc-5" target="77e6c97f196da883-12">
          <mxGeometry relative="1" as="geometry" />
        </mxCell>
        <mxCell id="2ZarbE_VErfhy2eBcegc-130" style="edgeStyle=orthogonalEdgeStyle;rounded=0;orthogonalLoop=1;jettySize=auto;html=1;exitX=1;exitY=0.5;exitDx=0;exitDy=0;" edge="1" parent="77e6c97f196da883-1" source="77e6c97f196da883-12" target="2ZarbE_VErfhy2eBcegc-124">
          <mxGeometry relative="1" as="geometry" />
        </mxCell>
        <mxCell id="2ZarbE_VErfhy2eBcegc-131" style="edgeStyle=orthogonalEdgeStyle;rounded=0;orthogonalLoop=1;jettySize=auto;html=1;entryX=1;entryY=0.5;entryDx=0;entryDy=0;" edge="1" parent="77e6c97f196da883-1" source="2ZarbE_VErfhy2eBcegc-121" target="2ZarbE_VErfhy2eBcegc-126">
          <mxGeometry relative="1" as="geometry">
            <Array as="points">
              <mxPoint x="410" y="430" />
            </Array>
          </mxGeometry>
        </mxCell>
        <mxCell id="2ZarbE_VErfhy2eBcegc-132" style="edgeStyle=orthogonalEdgeStyle;rounded=0;orthogonalLoop=1;jettySize=auto;html=1;entryX=1;entryY=0.5;entryDx=0;entryDy=0;" edge="1" parent="77e6c97f196da883-1" source="2ZarbE_VErfhy2eBcegc-124" target="77e6c97f196da883-18">
          <mxGeometry relative="1" as="geometry">
            <Array as="points">
              <mxPoint x="730" y="530" />
            </Array>
          </mxGeometry>
        </mxCell>
        <mxCell id="2ZarbE_VErfhy2eBcegc-133" style="edgeStyle=orthogonalEdgeStyle;rounded=0;orthogonalLoop=1;jettySize=auto;html=1;entryX=1;entryY=0.5;entryDx=0;entryDy=0;" edge="1" parent="77e6c97f196da883-1" source="77e6c97f196da883-18" target="2ZarbE_VErfhy2eBcegc-122">
          <mxGeometry relative="1" as="geometry" />
        </mxCell>
        <mxCell id="2ZarbE_VErfhy2eBcegc-134" style="edgeStyle=orthogonalEdgeStyle;rounded=0;orthogonalLoop=1;jettySize=auto;html=1;entryX=1;entryY=0.5;entryDx=0;entryDy=0;" edge="1" parent="77e6c97f196da883-1" source="2ZarbE_VErfhy2eBcegc-122" target="2ZarbE_VErfhy2eBcegc-14">
          <mxGeometry relative="1" as="geometry" />
        </mxCell>
        <mxCell id="2ZarbE_VErfhy2eBcegc-7" style="edgeStyle=orthogonalEdgeStyle;rounded=0;orthogonalLoop=1;jettySize=auto;html=1;" edge="1" parent="1" source="77e6c97f196da883-13">
          <mxGeometry relative="1" as="geometry">
            <mxPoint x="140" y="190" as="targetPoint" />
          </mxGeometry>
        </mxCell>
        <mxCell id="2ZarbE_VErfhy2eBcegc-8" value="返回相应错误code" style="edgeLabel;html=1;align=center;verticalAlign=middle;resizable=0;points=[];" vertex="1" connectable="0" parent="2ZarbE_VErfhy2eBcegc-7">
          <mxGeometry x="-0.16" y="2" relative="1" as="geometry">
            <mxPoint as="offset" />
          </mxGeometry>
        </mxCell>
        <mxCell id="2ZarbE_VErfhy2eBcegc-27" value="建班排课-课程评价管理" style="swimlane;html=1;childLayout=stackLayout;startSize=20;rounded=0;shadow=0;labelBackgroundColor=none;strokeWidth=1;fontFamily=Verdana;fontSize=8;align=center;" vertex="1" parent="1">
          <mxGeometry x="70" y="750" width="320" height="380" as="geometry" />
        </mxCell>
        <mxCell id="2ZarbE_VErfhy2eBcegc-28" value="lol-classes" style="swimlane;html=1;startSize=20;" vertex="1" parent="2ZarbE_VErfhy2eBcegc-27">
          <mxGeometry y="20" width="160" height="360" as="geometry" />
        </mxCell>
        <mxCell id="2ZarbE_VErfhy2eBcegc-119" value="查询主讲评价管理列表" style="rounded=1;whiteSpace=wrap;html=1;shadow=0;labelBackgroundColor=none;strokeWidth=1;fontFamily=Verdana;fontSize=8;align=center;" vertex="1" parent="2ZarbE_VErfhy2eBcegc-28">
          <mxGeometry x="20" y="70" width="100" height="60" as="geometry" />
        </mxCell>
        <mxCell id="2ZarbE_VErfhy2eBcegc-135" value="导出评价记录" style="rounded=1;whiteSpace=wrap;html=1;shadow=0;labelBackgroundColor=none;strokeWidth=1;fontFamily=Verdana;fontSize=8;align=center;" vertex="1" parent="2ZarbE_VErfhy2eBcegc-28">
          <mxGeometry x="20" y="180" width="100" height="60" as="geometry" />
        </mxCell>
        <mxCell id="2ZarbE_VErfhy2eBcegc-30" style="edgeStyle=orthogonalEdgeStyle;rounded=1;html=1;labelBackgroundColor=none;startArrow=none;startFill=0;startSize=5;endArrow=classicThin;endFill=1;endSize=5;jettySize=auto;orthogonalLoop=1;strokeWidth=1;fontFamily=Verdana;fontSize=8" edge="1" parent="2ZarbE_VErfhy2eBcegc-27" target="2ZarbE_VErfhy2eBcegc-33">
          <mxGeometry relative="1" as="geometry">
            <mxPoint x="120" y="115" as="sourcePoint" />
          </mxGeometry>
        </mxCell>
        <mxCell id="2ZarbE_VErfhy2eBcegc-31" value="lol-learning" style="swimlane;html=1;startSize=20;" vertex="1" parent="2ZarbE_VErfhy2eBcegc-27">
          <mxGeometry x="160" y="20" width="160" height="360" as="geometry" />
        </mxCell>
        <mxCell id="2ZarbE_VErfhy2eBcegc-33" value="查询评价记录" style="rounded=1;whiteSpace=wrap;html=1;shadow=0;labelBackgroundColor=none;strokeWidth=1;fontFamily=Verdana;fontSize=8;align=center;" vertex="1" parent="2ZarbE_VErfhy2eBcegc-31">
          <mxGeometry x="30" y="65" width="100" height="60" as="geometry" />
        </mxCell>
        <mxCell id="2ZarbE_VErfhy2eBcegc-57" value="教学内容管理-标签评价管理" style="swimlane;html=1;childLayout=stackLayout;startSize=20;rounded=0;shadow=0;labelBackgroundColor=none;strokeWidth=1;fontFamily=Verdana;fontSize=8;align=center;" vertex="1" parent="1">
          <mxGeometry x="65" y="1190" width="680" height="460" as="geometry" />
        </mxCell>
        <mxCell id="2ZarbE_VErfhy2eBcegc-58" value="lol-manager" style="swimlane;html=1;startSize=20;" vertex="1" parent="2ZarbE_VErfhy2eBcegc-57">
          <mxGeometry y="20" width="160" height="440" as="geometry" />
        </mxCell>
        <mxCell id="2ZarbE_VErfhy2eBcegc-118" value="查询评价标签管理列表" style="rounded=1;whiteSpace=wrap;html=1;shadow=0;labelBackgroundColor=none;strokeWidth=1;fontFamily=Verdana;fontSize=8;align=center;" vertex="1" parent="2ZarbE_VErfhy2eBcegc-58">
          <mxGeometry x="30" y="47" width="100" height="60" as="geometry" />
        </mxCell>
        <mxCell id="2ZarbE_VErfhy2eBcegc-138" value="添加评价标签" style="rounded=1;whiteSpace=wrap;html=1;shadow=0;labelBackgroundColor=none;strokeWidth=1;fontFamily=Verdana;fontSize=8;align=center;" vertex="1" parent="2ZarbE_VErfhy2eBcegc-58">
          <mxGeometry x="30" y="160" width="100" height="60" as="geometry" />
        </mxCell>
        <mxCell id="2ZarbE_VErfhy2eBcegc-145" value="编辑评价标签" style="rounded=1;whiteSpace=wrap;html=1;shadow=0;labelBackgroundColor=none;strokeWidth=1;fontFamily=Verdana;fontSize=8;align=center;" vertex="1" parent="2ZarbE_VErfhy2eBcegc-58">
          <mxGeometry x="30" y="260" width="100" height="60" as="geometry" />
        </mxCell>
        <mxCell id="2ZarbE_VErfhy2eBcegc-61" value="lol-learning" style="swimlane;html=1;startSize=20;" vertex="1" parent="2ZarbE_VErfhy2eBcegc-57">
          <mxGeometry x="160" y="20" width="170" height="440" as="geometry" />
        </mxCell>
        <mxCell id="2ZarbE_VErfhy2eBcegc-63" value="保存主讲/学习师评价标签接口" style="rounded=1;whiteSpace=wrap;html=1;shadow=0;labelBackgroundColor=none;strokeWidth=1;fontFamily=Verdana;fontSize=8;align=center;" vertex="1" parent="2ZarbE_VErfhy2eBcegc-61">
          <mxGeometry x="40" y="160" width="100" height="60" as="geometry" />
        </mxCell>
        <mxCell id="2ZarbE_VErfhy2eBcegc-137" value="编辑主讲/学习师评价标签接口" style="rounded=1;whiteSpace=wrap;html=1;shadow=0;labelBackgroundColor=none;strokeWidth=1;fontFamily=Verdana;fontSize=8;align=center;" vertex="1" parent="2ZarbE_VErfhy2eBcegc-61">
          <mxGeometry x="40" y="260" width="100" height="60" as="geometry" />
        </mxCell>
        <mxCell id="2ZarbE_VErfhy2eBcegc-139" value="查询主讲/学习师评价标签接口" style="rounded=1;whiteSpace=wrap;html=1;shadow=0;labelBackgroundColor=none;strokeWidth=1;fontFamily=Verdana;fontSize=8;align=center;" vertex="1" parent="2ZarbE_VErfhy2eBcegc-61">
          <mxGeometry x="40" y="47" width="100" height="60" as="geometry" />
        </mxCell>
        <mxCell id="2ZarbE_VErfhy2eBcegc-142" style="edgeStyle=orthogonalEdgeStyle;rounded=0;orthogonalLoop=1;jettySize=auto;html=1;entryX=0;entryY=0.5;entryDx=0;entryDy=0;" edge="1" parent="2ZarbE_VErfhy2eBcegc-57" source="2ZarbE_VErfhy2eBcegc-118" target="2ZarbE_VErfhy2eBcegc-139">
          <mxGeometry relative="1" as="geometry" />
        </mxCell>
        <mxCell id="2ZarbE_VErfhy2eBcegc-143" style="edgeStyle=orthogonalEdgeStyle;rounded=0;orthogonalLoop=1;jettySize=auto;html=1;entryX=0;entryY=0.5;entryDx=0;entryDy=0;" edge="1" parent="2ZarbE_VErfhy2eBcegc-57" source="2ZarbE_VErfhy2eBcegc-138" target="2ZarbE_VErfhy2eBcegc-63">
          <mxGeometry relative="1" as="geometry" />
        </mxCell>
        <mxCell id="2ZarbE_VErfhy2eBcegc-147" style="edgeStyle=orthogonalEdgeStyle;rounded=0;orthogonalLoop=1;jettySize=auto;html=1;entryX=0;entryY=0.5;entryDx=0;entryDy=0;" edge="1" parent="2ZarbE_VErfhy2eBcegc-57" source="2ZarbE_VErfhy2eBcegc-145" target="2ZarbE_VErfhy2eBcegc-137">
          <mxGeometry relative="1" as="geometry" />
        </mxCell>
        <mxCell id="2ZarbE_VErfhy2eBcegc-158" value="mysql" style="swimlane;html=1;startSize=20;" vertex="1" parent="2ZarbE_VErfhy2eBcegc-57">
          <mxGeometry x="330" y="20" width="170" height="440" as="geometry" />
        </mxCell>
        <mxCell id="2ZarbE_VErfhy2eBcegc-159" value="主讲/学习师评价标签表" style="rounded=1;whiteSpace=wrap;html=1;shadow=0;labelBackgroundColor=none;strokeWidth=1;fontFamily=Verdana;fontSize=8;align=center;" vertex="1" parent="2ZarbE_VErfhy2eBcegc-158">
          <mxGeometry x="45" y="160" width="100" height="60" as="geometry" />
        </mxCell>
        <mxCell id="2ZarbE_VErfhy2eBcegc-162" value="redis" style="swimlane;html=1;startSize=20;" vertex="1" parent="2ZarbE_VErfhy2eBcegc-57">
          <mxGeometry x="500" y="20" width="180" height="440" as="geometry" />
        </mxCell>
        <mxCell id="2ZarbE_VErfhy2eBcegc-163" value="缓存主讲/学习师评价标签" style="rounded=1;whiteSpace=wrap;html=1;shadow=0;labelBackgroundColor=none;strokeWidth=1;fontFamily=Verdana;fontSize=8;align=center;" vertex="1" parent="2ZarbE_VErfhy2eBcegc-162">
          <mxGeometry x="40" y="250" width="100" height="60" as="geometry" />
        </mxCell>
        <mxCell id="2ZarbE_VErfhy2eBcegc-170" value="是" style="edgeStyle=orthogonalEdgeStyle;rounded=0;orthogonalLoop=1;jettySize=auto;html=1;entryX=0.5;entryY=0;entryDx=0;entryDy=0;" edge="1" parent="2ZarbE_VErfhy2eBcegc-162" source="2ZarbE_VErfhy2eBcegc-168" target="2ZarbE_VErfhy2eBcegc-163">
          <mxGeometry relative="1" as="geometry" />
        </mxCell>
        <mxCell id="2ZarbE_VErfhy2eBcegc-168" value="判断是否有标签缓存" style="rhombus;whiteSpace=wrap;html=1;rounded=0;shadow=0;labelBackgroundColor=none;strokeWidth=1;fontFamily=Verdana;fontSize=8;align=center;" vertex="1" parent="2ZarbE_VErfhy2eBcegc-162">
          <mxGeometry x="50" y="107" width="80" height="60" as="geometry" />
        </mxCell>
        <mxCell id="2ZarbE_VErfhy2eBcegc-164" style="edgeStyle=orthogonalEdgeStyle;rounded=0;orthogonalLoop=1;jettySize=auto;html=1;entryX=0;entryY=0.5;entryDx=0;entryDy=0;" edge="1" parent="2ZarbE_VErfhy2eBcegc-57" source="2ZarbE_VErfhy2eBcegc-63" target="2ZarbE_VErfhy2eBcegc-159">
          <mxGeometry relative="1" as="geometry" />
        </mxCell>
        <mxCell id="2ZarbE_VErfhy2eBcegc-167" value="保存标签" style="edgeLabel;html=1;align=center;verticalAlign=middle;resizable=0;points=[];" vertex="1" connectable="0" parent="2ZarbE_VErfhy2eBcegc-164">
          <mxGeometry x="-0.12" y="-1" relative="1" as="geometry">
            <mxPoint as="offset" />
          </mxGeometry>
        </mxCell>
        <mxCell id="2ZarbE_VErfhy2eBcegc-165" style="edgeStyle=orthogonalEdgeStyle;rounded=0;orthogonalLoop=1;jettySize=auto;html=1;entryX=0.5;entryY=1;entryDx=0;entryDy=0;" edge="1" parent="2ZarbE_VErfhy2eBcegc-57" source="2ZarbE_VErfhy2eBcegc-137" target="2ZarbE_VErfhy2eBcegc-159">
          <mxGeometry relative="1" as="geometry" />
        </mxCell>
        <mxCell id="2ZarbE_VErfhy2eBcegc-166" value="更新缓存" style="edgeStyle=orthogonalEdgeStyle;rounded=0;orthogonalLoop=1;jettySize=auto;html=1;entryX=0;entryY=0.5;entryDx=0;entryDy=0;" edge="1" parent="2ZarbE_VErfhy2eBcegc-57" source="2ZarbE_VErfhy2eBcegc-159" target="2ZarbE_VErfhy2eBcegc-163">
          <mxGeometry relative="1" as="geometry" />
        </mxCell>
        <mxCell id="2ZarbE_VErfhy2eBcegc-171" style="edgeStyle=orthogonalEdgeStyle;rounded=0;orthogonalLoop=1;jettySize=auto;html=1;entryX=0.5;entryY=0;entryDx=0;entryDy=0;" edge="1" parent="2ZarbE_VErfhy2eBcegc-57" source="2ZarbE_VErfhy2eBcegc-139" target="2ZarbE_VErfhy2eBcegc-168">
          <mxGeometry relative="1" as="geometry" />
        </mxCell>
        <mxCell id="2ZarbE_VErfhy2eBcegc-172" value="查询缓存数据" style="edgeLabel;html=1;align=center;verticalAlign=middle;resizable=0;points=[];" vertex="1" connectable="0" parent="2ZarbE_VErfhy2eBcegc-171">
          <mxGeometry x="0.0063" y="1" relative="1" as="geometry">
            <mxPoint as="offset" />
          </mxGeometry>
        </mxCell>
        <mxCell id="2ZarbE_VErfhy2eBcegc-173" value="否" style="edgeStyle=orthogonalEdgeStyle;rounded=0;orthogonalLoop=1;jettySize=auto;html=1;entryX=0.5;entryY=0;entryDx=0;entryDy=0;" edge="1" parent="2ZarbE_VErfhy2eBcegc-57" source="2ZarbE_VErfhy2eBcegc-168" target="2ZarbE_VErfhy2eBcegc-159">
          <mxGeometry relative="1" as="geometry" />
        </mxCell>
        <mxCell id="2ZarbE_VErfhy2eBcegc-87" value="学生端" style="swimlane;html=1;childLayout=stackLayout;startSize=20;rounded=0;shadow=0;labelBackgroundColor=none;strokeWidth=1;fontFamily=Verdana;fontSize=8;align=center;" vertex="1" parent="1">
          <mxGeometry x="70" y="1740" width="840" height="530" as="geometry" />
        </mxCell>
        <mxCell id="2ZarbE_VErfhy2eBcegc-88" value="直播SDK" style="swimlane;html=1;startSize=20;" vertex="1" parent="2ZarbE_VErfhy2eBcegc-87">
          <mxGeometry y="20" width="160" height="510" as="geometry" />
        </mxCell>
        <mxCell id="2ZarbE_VErfhy2eBcegc-89" value="接收课程评价信令" style="rounded=1;whiteSpace=wrap;html=1;shadow=0;labelBackgroundColor=none;strokeWidth=1;fontFamily=Verdana;fontSize=8;align=center;" vertex="1" parent="2ZarbE_VErfhy2eBcegc-88">
          <mxGeometry x="30" y="80" width="100" height="60" as="geometry" />
        </mxCell>
        <mxCell id="2ZarbE_VErfhy2eBcegc-91" value="app" style="swimlane;html=1;startSize=20;" vertex="1" parent="2ZarbE_VErfhy2eBcegc-87">
          <mxGeometry x="160" y="20" width="160" height="510" as="geometry" />
        </mxCell>
        <mxCell id="2ZarbE_VErfhy2eBcegc-93" value="弹出课程评价" style="rounded=1;whiteSpace=wrap;html=1;shadow=0;labelBackgroundColor=none;strokeWidth=1;fontFamily=Verdana;fontSize=8;align=center;" vertex="1" parent="2ZarbE_VErfhy2eBcegc-91">
          <mxGeometry x="30" y="80" width="100" height="60" as="geometry" />
        </mxCell>
        <mxCell id="2ZarbE_VErfhy2eBcegc-182" value="提交评价" style="rounded=1;whiteSpace=wrap;html=1;shadow=0;labelBackgroundColor=none;strokeWidth=1;fontFamily=Verdana;fontSize=8;align=center;" vertex="1" parent="2ZarbE_VErfhy2eBcegc-91">
          <mxGeometry x="30" y="305" width="100" height="60" as="geometry" />
        </mxCell>
        <mxCell id="2ZarbE_VErfhy2eBcegc-99" value="lol-learning" style="swimlane;html=1;startSize=20;" vertex="1" parent="2ZarbE_VErfhy2eBcegc-87">
          <mxGeometry x="320" y="20" width="160" height="510" as="geometry" />
        </mxCell>
        <mxCell id="2ZarbE_VErfhy2eBcegc-192" style="edgeStyle=orthogonalEdgeStyle;rounded=0;orthogonalLoop=1;jettySize=auto;html=1;entryX=0.5;entryY=0;entryDx=0;entryDy=0;" edge="1" parent="2ZarbE_VErfhy2eBcegc-99" source="2ZarbE_VErfhy2eBcegc-157" target="2ZarbE_VErfhy2eBcegc-177">
          <mxGeometry relative="1" as="geometry" />
        </mxCell>
        <mxCell id="2ZarbE_VErfhy2eBcegc-157" value="获取课程评价内容接口" style="rounded=1;whiteSpace=wrap;html=1;shadow=0;labelBackgroundColor=none;strokeWidth=1;fontFamily=Verdana;fontSize=8;align=center;" vertex="1" parent="2ZarbE_VErfhy2eBcegc-99">
          <mxGeometry x="30" y="80" width="100" height="60" as="geometry" />
        </mxCell>
        <mxCell id="2ZarbE_VErfhy2eBcegc-177" value="查询课程评价标签接口" style="rounded=1;whiteSpace=wrap;html=1;shadow=0;labelBackgroundColor=none;strokeWidth=1;fontFamily=Verdana;fontSize=8;align=center;" vertex="1" parent="2ZarbE_VErfhy2eBcegc-99">
          <mxGeometry x="30" y="180" width="100" height="60" as="geometry" />
        </mxCell>
        <mxCell id="2ZarbE_VErfhy2eBcegc-183" value="保存评价" style="rounded=1;whiteSpace=wrap;html=1;shadow=0;labelBackgroundColor=none;strokeWidth=1;fontFamily=Verdana;fontSize=8;align=center;" vertex="1" parent="2ZarbE_VErfhy2eBcegc-99">
          <mxGeometry x="30" y="305" width="100" height="60" as="geometry" />
        </mxCell>
        <mxCell id="2ZarbE_VErfhy2eBcegc-102" value="MQ" style="swimlane;html=1;startSize=20;" vertex="1" parent="2ZarbE_VErfhy2eBcegc-87">
          <mxGeometry x="480" y="20" width="170" height="510" as="geometry" />
        </mxCell>
        <mxCell id="2ZarbE_VErfhy2eBcegc-185" value="异常保存评价" style="rounded=1;whiteSpace=wrap;html=1;shadow=0;labelBackgroundColor=none;strokeWidth=1;fontFamily=Verdana;fontSize=8;align=center;" vertex="1" parent="2ZarbE_VErfhy2eBcegc-102">
          <mxGeometry x="20" y="305" width="100" height="60" as="geometry" />
        </mxCell>
        <mxCell id="2ZarbE_VErfhy2eBcegc-176" style="edgeStyle=orthogonalEdgeStyle;rounded=0;orthogonalLoop=1;jettySize=auto;html=1;entryX=0;entryY=0.5;entryDx=0;entryDy=0;" edge="1" parent="2ZarbE_VErfhy2eBcegc-87" source="2ZarbE_VErfhy2eBcegc-93" target="2ZarbE_VErfhy2eBcegc-157">
          <mxGeometry relative="1" as="geometry" />
        </mxCell>
        <mxCell id="2ZarbE_VErfhy2eBcegc-179" style="edgeStyle=orthogonalEdgeStyle;rounded=0;orthogonalLoop=1;jettySize=auto;html=1;" edge="1" parent="2ZarbE_VErfhy2eBcegc-87" source="2ZarbE_VErfhy2eBcegc-89" target="2ZarbE_VErfhy2eBcegc-93">
          <mxGeometry relative="1" as="geometry" />
        </mxCell>
        <mxCell id="2ZarbE_VErfhy2eBcegc-184" style="edgeStyle=orthogonalEdgeStyle;rounded=0;orthogonalLoop=1;jettySize=auto;html=1;" edge="1" parent="2ZarbE_VErfhy2eBcegc-87" source="2ZarbE_VErfhy2eBcegc-182" target="2ZarbE_VErfhy2eBcegc-183">
          <mxGeometry relative="1" as="geometry" />
        </mxCell>
        <mxCell id="2ZarbE_VErfhy2eBcegc-186" style="edgeStyle=orthogonalEdgeStyle;rounded=0;orthogonalLoop=1;jettySize=auto;html=1;entryX=0;entryY=0.5;entryDx=0;entryDy=0;" edge="1" parent="2ZarbE_VErfhy2eBcegc-87" source="2ZarbE_VErfhy2eBcegc-183" target="2ZarbE_VErfhy2eBcegc-185">
          <mxGeometry relative="1" as="geometry" />
        </mxCell>
        <mxCell id="2ZarbE_VErfhy2eBcegc-187" style="edgeStyle=orthogonalEdgeStyle;rounded=0;orthogonalLoop=1;jettySize=auto;html=1;" edge="1" parent="2ZarbE_VErfhy2eBcegc-87" source="2ZarbE_VErfhy2eBcegc-185" target="2ZarbE_VErfhy2eBcegc-103">
          <mxGeometry relative="1" as="geometry" />
        </mxCell>
        <mxCell id="2ZarbE_VErfhy2eBcegc-188" value="&lt;span style=&quot;font-family: &amp;#34;verdana&amp;#34; ; font-size: 8px ; background-color: rgb(248 , 249 , 250)&quot;&gt;主讲ID取模分表存储&lt;/span&gt;" style="edgeLabel;html=1;align=center;verticalAlign=middle;resizable=0;points=[];" vertex="1" connectable="0" parent="2ZarbE_VErfhy2eBcegc-187">
          <mxGeometry x="-0.1143" y="-1" relative="1" as="geometry">
            <mxPoint as="offset" />
          </mxGeometry>
        </mxCell>
        <mxCell id="2ZarbE_VErfhy2eBcegc-174" value="mysql" style="swimlane;html=1;startSize=20;" vertex="1" parent="2ZarbE_VErfhy2eBcegc-87">
          <mxGeometry x="650" y="20" width="190" height="510" as="geometry" />
        </mxCell>
        <mxCell id="2ZarbE_VErfhy2eBcegc-103" value="课程评价记录表" style="rounded=1;whiteSpace=wrap;html=1;shadow=0;labelBackgroundColor=none;strokeWidth=1;fontFamily=Verdana;fontSize=8;align=center;" vertex="1" parent="2ZarbE_VErfhy2eBcegc-174">
          <mxGeometry x="60" y="305" width="100" height="60" as="geometry" />
        </mxCell>
        <mxCell id="2ZarbE_VErfhy2eBcegc-194" value="返回评价" style="edgeStyle=orthogonalEdgeStyle;rounded=0;orthogonalLoop=1;jettySize=auto;html=1;exitX=0;exitY=0.75;exitDx=0;exitDy=0;entryX=1;entryY=0.75;entryDx=0;entryDy=0;" edge="1" parent="2ZarbE_VErfhy2eBcegc-87" source="2ZarbE_VErfhy2eBcegc-157" target="2ZarbE_VErfhy2eBcegc-93">
          <mxGeometry relative="1" as="geometry" />
        </mxCell>
        <mxCell id="2ZarbE_VErfhy2eBcegc-136" style="edgeStyle=orthogonalEdgeStyle;rounded=0;orthogonalLoop=1;jettySize=auto;html=1;" edge="1" parent="1" source="2ZarbE_VErfhy2eBcegc-135">
          <mxGeometry relative="1" as="geometry">
            <mxPoint x="310" y="900" as="targetPoint" />
          </mxGeometry>
        </mxCell>
      </root>
    </mxGraphModel>
  </diagram>
</mxfile>
